<svg xmlns="http://www.w3.org/2000/svg" width="133" height="115" fill="none" viewBox="0 0 133 115">
  <path fill="#EDF5FA" d="M1.948 109.77c0 1.926 1.745 3.487 3.897 3.487h116.634c2.152 0 3.897-1.561 3.897-3.487V7.554c0-1.926-1.745-3.487-3.897-3.487H8.442c-2.152 0-3.896 1.561-3.896 3.487L1.948 26.655v83.115z"/>
  <path fill="#D0E7F2" d="M124.558 2.208h-5.196c2.152 0 3.897 1.096 3.897 3.021V109.77c0 1.926-1.745 3.487-3.897 3.487h7.793c2.152 0 3.897-1.561 3.897-3.487V26.655L128.454 5.23c0-1.926-1.745-3.022-3.896-3.022z"/>
  <path fill="#FEE97D" d="M30.265 78.197H19.637c-1.435 0-2.598-1.04-2.598-2.324V64.039c0-1.284 1.163-2.324 2.598-2.324h10.628c1.435 0 2.598 1.04 2.598 2.324v11.834c0 1.283-1.163 2.324-2.598 2.324z"/>
  <path fill="#FEDF30" d="M32.863 61.715h-5.195c1.434 0 2.597 1.04 2.597 2.324v11.834c0 1.283-1.163 2.324-2.597 2.324h5.195c1.435 0 2.598-1.04 2.598-2.324V64.039c0-1.284-1.163-2.324-2.598-2.324z"/>
  <path fill="#978ECB" d="M110.765 78.197H47.631c-1.435 0-2.598-1.04-2.598-2.324V64.039c0-1.284 1.163-2.324 2.598-2.324h63.134c1.435 0 2.598 1.04 2.598 2.324v11.834c0 1.283-1.163 2.324-2.598 2.324z"/>
  <path fill="#6E61B6" d="M113.363 61.715h-5.196c1.435 0 2.598 1.04 2.598 2.324v11.834c0 1.283-1.163 2.324-2.598 2.324h5.196c1.434 0 2.597-1.04 2.597-2.324V64.039c0-1.284-1.163-2.324-2.597-2.324z"/>
  <path fill="#6CF5C2" d="M30.265 103.965H19.637c-1.435 0-2.598-1.04-2.598-2.324V89.807c0-1.283 1.163-2.324 2.598-2.324h10.628c1.435 0 2.598 1.04 2.598 2.324v11.834c0 1.283-1.163 2.324-2.598 2.324z"/>
  <path fill="#05E39C" d="M32.863 87.483h-5.195c1.434 0 2.597 1.04 2.597 2.324v11.834c0 1.284-1.163 2.324-2.597 2.324h5.195c1.435 0 2.598-1.04 2.598-2.324V89.807c0-1.283-1.163-2.324-2.598-2.324z"/>
  <path fill="#978ECB" d="M110.765 103.965H47.631c-1.435 0-2.598-1.04-2.598-2.324V89.807c0-1.283 1.163-2.324 2.598-2.324h63.134c1.435 0 2.598 1.04 2.598 2.324v11.834c0 1.283-1.163 2.324-2.598 2.324z"/>
  <path fill="#6E61B6" d="M113.363 87.483h-5.196c1.435 0 2.598 1.04 2.598 2.324v11.834c0 1.284-1.163 2.324-2.598 2.324h5.196c1.434 0 2.597-1.04 2.597-2.324V89.807c0-1.283-1.163-2.324-2.597-2.324z"/>
  <path fill="#978ECB" d="M124.038 1.743H5.845c-2.152 0-3.897 1.561-3.897 3.486v21.426h125.987V5.23c0-1.926-1.745-3.487-3.897-3.487z"/>
  <path fill="#6E61B6" d="M127.155 1.743h-7.793c2.152 0 3.897 1.561 3.897 3.486v21.426h7.793V5.23c0-1.926-1.745-3.487-3.897-3.487z"/>
  <path fill="#6CF5C2" d="M57.646 14.2c0 2.283-1.81 3.902-4.362 3.902-.638 0-1.246.116-1.799-.093-1.659-.628-2.822-2.097-2.822-3.81 0-1.706 1.154-3.17 2.803-3.802.558-.214 1.173-.1 1.818-.1 2.553 0 4.362 1.618 4.362 3.902z"/>
  <path fill="#05E39C" d="M53.284 10.064c-.646 0-1.26.12-1.818.333 1.648.632 2.803 2.096 2.803 3.802s-1.155 3.17-2.803 3.802a5.073 5.073 0 001.818.333c2.553 0 4.622-1.851 4.622-4.135s-2.07-4.135-4.622-4.135z"/>
  <path fill="#FEE97D" d="M39.095 14.2c0 2.283-1.81 3.902-4.362 3.902-.638 0-1.246.116-1.799-.093-1.659-.628-2.822-2.097-2.822-3.81 0-1.706 1.154-3.17 2.802-3.802.559-.214 1.173-.1 1.82-.1 2.551 0 4.36 1.618 4.36 3.902z"/>
  <path fill="#FEDF30" d="M34.733 10.064c-.646 0-1.26.12-1.818.333 1.648.632 2.803 2.096 2.803 3.802s-1.155 3.17-2.803 3.802a5.073 5.073 0 001.818.333c2.552 0 4.622-1.851 4.622-4.135s-2.07-4.135-4.622-4.135z"/>
  <path fill="#E592B8" d="M20.544 14.2c0 2.283-1.81 3.902-4.362 3.902-.638 0-1.246.116-1.799-.093-1.659-.628-2.822-2.097-2.822-3.81 0-1.706 1.154-3.17 2.803-3.802.558-.214 1.173-.1 1.818-.1 2.552 0 4.362 1.618 4.362 3.902z"/>
  <path fill="#E175A5" d="M16.182 10.064c-.646 0-1.26.12-1.818.333 1.648.632 2.803 2.096 2.803 3.802s-1.155 3.17-2.803 3.802a5.073 5.073 0 001.818.333c2.553 0 4.622-1.851 4.622-4.135s-2.07-4.135-4.622-4.135z"/>
  <path fill="#E592B8" d="M30.265 52.429H19.637c-1.435 0-2.598-1.04-2.598-2.325V38.272c0-1.284 1.163-2.325 2.598-2.325h10.628c1.435 0 2.598 1.041 2.598 2.325v11.834c0 1.283-1.163 2.324-2.598 2.324z"/>
  <path fill="#E175A5" d="M32.863 35.947h-5.195c1.434 0 2.597 1.04 2.597 2.324v11.834c0 1.283-1.163 2.324-2.597 2.324h5.195c1.435 0 2.598-1.04 2.598-2.325V38.272c0-1.284-1.163-2.325-2.598-2.325z"/>
  <path fill="#978ECB" d="M110.765 52.429H47.631c-1.435 0-2.598-1.04-2.598-2.325V38.272c0-1.284 1.163-2.325 2.598-2.325h63.134c1.435 0 2.598 1.041 2.598 2.325v11.834c0 1.283-1.163 2.324-2.598 2.324z"/>
  <path fill="#6E61B6" d="M113.363 35.947h-5.196c1.435 0 2.598 1.04 2.598 2.324v11.834c0 1.283-1.163 2.324-2.598 2.324h5.196c1.434 0 2.597-1.04 2.597-2.325V38.272c0-1.284-1.163-2.325-2.597-2.325z"/>
  <g>
    <path fill="#000" d="M46.714 14.199c0 3.241 2.948 5.878 6.57 5.878 3.623 0 6.57-2.637 6.57-5.878s-2.947-5.878-6.57-5.878c-3.622 0-6.57 2.637-6.57 5.878zm9.243 0c0 1.319-1.199 2.392-2.673 2.392s-2.673-1.073-2.673-2.392c0-1.32 1.199-2.392 2.673-2.392s2.673 1.073 2.673 2.392zM28.163 14.199c0 3.241 2.948 5.878 6.57 5.878 3.622 0 6.57-2.637 6.57-5.878s-2.948-5.878-6.57-5.878c-3.622 0-6.57 2.637-6.57 5.878zm9.243 0c0 1.319-1.2 2.392-2.673 2.392-1.474 0-2.673-1.073-2.673-2.392 0-1.32 1.2-2.392 2.673-2.392 1.474 0 2.673 1.073 2.673 2.392zM9.612 14.199c0 3.241 2.947 5.878 6.57 5.878 3.622 0 6.57-2.637 6.57-5.878s-2.948-5.878-6.57-5.878c-3.623 0-6.57 2.637-6.57 5.878zm9.243 0c0 1.319-1.2 2.392-2.673 2.392-1.474 0-2.673-1.073-2.673-2.392 0-1.32 1.199-2.392 2.673-2.392s2.673 1.073 2.673 2.392z"/>
    <path fill="#000" d="M127.155 0H5.845C2.622 0 0 2.346 0 5.23v67.697c0 .963.872 1.744 1.948 1.744s1.948-.78 1.948-1.744V28.398h72.89c1.076 0 1.948-.78 1.948-1.743 0-.963-.872-1.743-1.948-1.743H3.896V5.229c0-.961.874-1.743 1.949-1.743h121.31c1.075 0 1.949.782 1.949 1.743v19.683H85.277c-1.076 0-1.949.78-1.949 1.743 0 .963.873 1.743 1.949 1.743h43.827v81.372c0 .962-.874 1.743-1.949 1.743H5.845c-1.075 0-1.949-.781-1.949-1.743V80.525c0-.963-.872-1.744-1.948-1.744S0 79.561 0 80.525v29.246C0 112.654 2.622 115 5.845 115h121.31c3.223 0 5.845-2.346 5.845-5.229V5.229C133 2.346 130.378 0 127.155 0z"/>
    <path fill="#000" d="M15.091 75.873c0 2.242 2.04 4.067 4.546 4.067h13.226c2.507 0 4.546-1.825 4.546-4.067V64.039c0-2.242-2.04-4.067-4.546-4.067H19.637c-2.506 0-4.546 1.825-4.546 4.067v11.834zm3.897-11.834c0-.32.291-.58.65-.58h13.225c.358 0 .65.26.65.58v11.834c0 .32-.292.581-.65.581H19.637c-.358 0-.65-.26-.65-.581V64.039zM15.091 101.641c0 2.243 2.04 4.067 4.546 4.067h13.226c2.507 0 4.546-1.824 4.546-4.067V89.807c0-2.242-2.04-4.067-4.546-4.067H19.637c-2.506 0-4.546 1.825-4.546 4.067v11.834zm3.897-11.834c0-.32.291-.58.65-.58h13.225c.358 0 .65.26.65.58v11.834c0 .321-.292.581-.65.581H19.637c-.358 0-.65-.26-.65-.581V89.807zM43.084 101.641c0 2.243 2.04 4.067 4.546 4.067h65.733c2.506 0 4.546-1.824 4.546-4.067V89.807c0-2.242-2.04-4.067-4.546-4.067H47.63c-2.506 0-4.546 1.825-4.546 4.067v11.834zm3.897-11.834c0-.32.291-.58.65-.58h65.732c.358 0 .649.26.649.58v11.834c0 .321-.291.581-.649.581H47.63c-.358 0-.65-.26-.65-.581V89.807zM19.637 54.172h13.226c2.507 0 4.546-1.825 4.546-4.067V38.27c0-2.243-2.04-4.068-4.546-4.068H19.637c-2.506 0-4.546 1.825-4.546 4.068v11.834c0 2.242 2.04 4.067 4.546 4.067zm-.65-15.901c0-.32.292-.581.65-.581h13.226c.358 0 .65.26.65.58v11.834c0 .321-.292.582-.65.582H19.637c-.358 0-.65-.26-.65-.581V38.27zM47.63 54.172h65.733c2.506 0 4.546-1.825 4.546-4.067V38.27c0-2.243-2.04-4.068-4.546-4.068H47.63c-2.506 0-4.546 1.825-4.546 4.068v11.834c0 2.242 2.04 4.067 4.546 4.067zm-.65-15.901c0-.32.292-.581.65-.581h65.733c.358 0 .649.26.649.58v11.834c0 .321-.291.582-.649.582H47.63c-.358 0-.65-.26-.65-.581V38.27zM43.084 75.873c0 2.242 2.04 4.067 4.546 4.067h65.733c2.506 0 4.546-1.825 4.546-4.067V64.039c0-2.242-2.04-4.067-4.546-4.067H70.745c-1.076 0-1.948.78-1.948 1.743 0 .963.872 1.743 1.948 1.743h42.618c.358 0 .649.26.649.581v11.834c0 .32-.291.581-.649.581H47.63c-.358 0-.65-.26-.65-.581V64.039c0-.32.292-.58.65-.58h14.624c1.076 0 1.949-.781 1.949-1.744s-.873-1.743-1.949-1.743H47.63c-2.506 0-4.546 1.825-4.546 4.067v11.834z"/>
  </g>
</svg>
