<svg xmlns="http://www.w3.org/2000/svg" width="119" height="119" fill="none" viewBox="0 0 119 119">
  <g clip-path="url(#clip0)">
    <path fill="#284E98" d="M54.282 117.257c7.472 0 13.53-6.048 13.53-13.508 0-7.46-6.058-13.507-13.53-13.507-7.473 0-13.53 6.047-13.53 13.507s6.057 13.508 13.53 13.508z"/>
    <path fill="#4792BD" d="M54.282 90.241c-1.368 0-2.688.205-3.932.582 5.553 1.682 9.597 6.832 9.597 12.926s-4.044 11.244-9.598 12.927c1.245.377 2.565.581 3.933.581 7.472 0 13.53-6.048 13.53-13.508 0-7.46-6.058-13.508-13.53-13.508z"/>
    <path fill="#284E98" d="M55.863 24.914c-4.345.871-8.575-1.939-9.449-6.277-.873-4.338 1.942-8.561 6.287-9.433 4.345-.871 8.575 1.939 9.448 6.277.873 4.338-1.941 8.56-6.286 9.433z"/>
    <path fill="#4792BD" d="M62.15 15.48c-.874-4.338-5.104-7.147-9.45-6.276a8.111 8.111 0 00-1.17.328 8.011 8.011 0 015.116 5.949c.791 3.934-1.45 7.774-5.115 9.104a8 8 0 004.332.328c4.345-.871 7.16-5.094 6.286-9.432z"/>
    <path fill="#3C64B1" d="M87.793 101.489H20.77c-5.997 0-10.858-4.854-10.858-10.84 0-3.315 1.502-6.452 4.086-8.532l2.154-1.734a21.111 21.111 0 007.875-16.443V52.547c0-16.809 13.648-30.435 30.484-30.435 16.836 0 30.484 13.626 30.484 30.435V64.15a21.11 21.11 0 007.61 16.225l2.096 1.745a10.954 10.954 0 013.948 8.42v.108c0 5.987-4.86 10.841-10.857 10.841z"/>
    <path fill="#284E98" d="M94.702 82.12l-2.097-1.745a21.111 21.111 0 01-7.609-16.225V52.547c0-16.809-13.648-30.435-30.484-30.435-2.983 0-5.864.43-8.589 1.227 12.654 3.703 21.895 15.377 21.895 29.207V64.15a21.111 21.111 0 007.61 16.225l2.097 1.745a10.954 10.954 0 013.948 8.419v.11c0 5.986-4.862 10.84-10.858 10.84h17.178c5.996 0 10.857-4.854 10.857-10.84v-.11c0-3.252-1.446-6.336-3.948-8.419z"/>
    <path fill="#F33759" d="M82.924 53.985c14.45 0 26.163-11.695 26.163-26.12 0-14.427-11.714-26.122-26.163-26.122-14.45 0-26.164 11.695-26.164 26.121 0 14.426 11.714 26.121 26.164 26.121z"/>
    <path fill="#CC2B5A" d="M89.945 2.696c6.672 4.734 11.025 12.513 11.025 21.307 0 14.426-11.714 26.12-26.164 26.12-2.432 0-4.786-.332-7.02-.952a26.073 26.073 0 0015.138 4.814c14.45 0 26.163-11.694 26.163-26.12 0-11.999-8.102-22.106-19.142-25.17z"/>
    <g>
      <path fill="#000" d="M107.344 27.864a1.743 1.743 0 103.486 0C110.83 12.5 98.311 0 82.924 0 74.213 0 66.422 4.006 61.3 10.27a9.744 9.744 0 00-8.942-2.775 9.709 9.709 0 00-6.209 4.16 9.682 9.682 0 00-1.445 7.327 9.76 9.76 0 00.934 2.623c-13.68 3.902-23.355 16.512-23.355 30.941a1.743 1.743 0 103.486 0c0-13.663 9.73-25.5 23.134-28.146l.006-.002a29.141 29.141 0 016.396-.531 27.935 27.935 0 00-.289 3.997c0 15.364 12.519 27.864 27.907 27.864.11 0 .218-.005.328-.006v8.429a22.794 22.794 0 008.238 17.563l2.097 1.746a9.188 9.188 0 013.321 7.08v.11c0 5.016-4.089 9.097-9.115 9.097H20.77c-5.026 0-9.115-4.081-9.115-9.098 0-1.37.312-2.744.903-3.975a9.27 9.27 0 012.534-3.199l2.152-1.735a22.75 22.75 0 008.525-17.8v-3.822a1.743 1.743 0 10-3.486 0v3.822a19.28 19.28 0 01-7.226 15.085l-2.152 1.735a12.772 12.772 0 00-3.49 4.406A12.748 12.748 0 008.17 90.65c0 6.94 5.653 12.585 12.602 12.585H39.02c-.005.172-.01.343-.01.515 0 8.41 6.851 15.251 15.273 15.251 8.421 0 15.273-6.841 15.273-15.251 0-.171-.005-.343-.011-.515h18.249c6.948 0 12.601-5.646 12.601-12.585v-.11c0-3.78-1.668-7.337-4.577-9.758l-2.097-1.746a19.317 19.317 0 01-6.982-14.884v-8.683a27.625 27.625 0 0013.06-5.409c4.727-3.589 8.246-8.683 9.908-14.344a1.742 1.742 0 10-3.345-.982c-1.454 4.95-4.533 9.408-8.672 12.549-4.275 3.245-9.38 4.96-14.766 4.96-13.465 0-24.42-10.936-24.42-24.378S69.458 3.486 82.924 3.486c13.465 0 24.42 10.936 24.42 24.378zM66.069 103.75c0 6.487-5.287 11.765-11.787 11.765-6.499 0-11.786-5.278-11.786-11.765 0-.172.004-.344.011-.516h23.55c.008.172.012.344.012.516zm-11.558-83.38c-1.763 0-3.53.146-5.27.43a6.232 6.232 0 01-1.118-2.505 6.22 6.22 0 01.929-4.706 6.243 6.243 0 013.992-2.675 6.263 6.263 0 016.174 2.265 27.704 27.704 0 00-3.184 7.226 32.758 32.758 0 00-1.523-.035z"/>
      <path fill="#000" d="M82.924 39.984c.962 0 1.743-.78 1.743-1.743V16.52a1.743 1.743 0 00-2.917-1.289l-3.739 3.404a1.743 1.743 0 002.347 2.578l.822-.748V38.24c0 .962.78 1.743 1.743 1.743z"/>
    </g>
  </g>
  <defs>
    <clipPath id="clip0">
      <path fill="#fff" d="M0 0h119v119H0z"/>
    </clipPath>
  </defs>
</svg>
